<svg xmlns:xlink="http://www.w3.org/1999/xlink" xmlns="http://www.w3.org/2000/svg" version="1.1" width="1000px" height="1000px">
  <title>SVG 3</title>
  <desc>Troisième SVG que j'ai écrit avec mes petites mains qui m'appartiennent à moi tout seul parce que sinon ce serait problématique</desc>
  <line x1="100" y1="100" x2="100" y2="101" style="stroke:black"/>
  <line x1="100" y1="101" x2="101" y2="101" style="stroke:black"/>
  <line x1="101" y1="101" x2="101" y2="100" style="stroke:black"/>
  <line x1="101" y1="100" x2="100" y2="100" style="stroke:black"/>
  <line x1="100" y1="100" x2="100" y2="102" style="stroke:black"/>
  <line x1="100" y1="102" x2="102" y2="102" style="stroke:black"/>
  <line x1="102" y1="102" x2="102" y2="100" style="stroke:black"/>
  <line x1="102" y1="100" x2="100" y2="100" style="stroke:black"/>
  <line x1="100" y1="100" x2="100" y2="103" style="stroke:black"/>
  <line x1="100" y1="103" x2="103" y2="103" style="stroke:black"/>
  <line x1="103" y1="103" x2="103" y2="100" style="stroke:black"/>
  <line x1="103" y1="100" x2="100" y2="100" style="stroke:black"/>
  <line x1="100" y1="100" x2="100" y2="104" style="stroke:black"/>
  <line x1="100" y1="104" x2="104" y2="104" style="stroke:black"/>
  <line x1="104" y1="104" x2="104" y2="100" style="stroke:black"/>
  <line x1="104" y1="100" x2="100" y2="100" style="stroke:black"/>
  <line x1="100" y1="100" x2="100" y2="105" style="stroke:black"/>
  <line x1="100" y1="105" x2="105" y2="105" style="stroke:black"/>
  <line x1="105" y1="105" x2="105" y2="100" style="stroke:black"/>
  <line x1="105" y1="100" x2="100" y2="100" style="stroke:black"/>
  <line x1="100" y1="100" x2="100" y2="106" style="stroke:black"/>
  <line x1="100" y1="106" x2="106" y2="106" style="stroke:black"/>
  <line x1="106" y1="106" x2="106" y2="100" style="stroke:black"/>
  <line x1="106" y1="100" x2="100" y2="100" style="stroke:black"/>
  <line x1="100" y1="100" x2="100" y2="107" style="stroke:black"/>
  <line x1="100" y1="107" x2="107" y2="107" style="stroke:black"/>
  <line x1="107" y1="107" x2="107" y2="100" style="stroke:black"/>
  <line x1="107" y1="100" x2="100" y2="100" style="stroke:black"/>
  <line x1="100" y1="100" x2="100" y2="108" style="stroke:black"/>
  <line x1="100" y1="108" x2="108" y2="108" style="stroke:black"/>
  <line x1="108" y1="108" x2="108" y2="100" style="stroke:black"/>
  <line x1="108" y1="100" x2="100" y2="100" style="stroke:black"/>
  <line x1="100" y1="100" x2="100" y2="109" style="stroke:black"/>
  <line x1="100" y1="109" x2="109" y2="109" style="stroke:black"/>
  <line x1="109" y1="109" x2="109" y2="100" style="stroke:black"/>
  <line x1="109" y1="100" x2="100" y2="100" style="stroke:black"/>
  <line x1="100" y1="100" x2="100" y2="110" style="stroke:black"/>
  <line x1="100" y1="110" x2="110" y2="110" style="stroke:black"/>
  <line x1="110" y1="110" x2="110" y2="100" style="stroke:black"/>
  <line x1="110" y1="100" x2="100" y2="100" style="stroke:black"/>
  <line x1="100" y1="100" x2="100" y2="111" style="stroke:black"/>
  <line x1="100" y1="111" x2="111" y2="111" style="stroke:black"/>
  <line x1="111" y1="111" x2="111" y2="100" style="stroke:black"/>
  <line x1="111" y1="100" x2="100" y2="100" style="stroke:black"/>
  <line x1="100" y1="100" x2="100" y2="112" style="stroke:black"/>
  <line x1="100" y1="112" x2="112" y2="112" style="stroke:black"/>
  <line x1="112" y1="112" x2="112" y2="100" style="stroke:black"/>
  <line x1="112" y1="100" x2="100" y2="100" style="stroke:black"/>
  <line x1="100" y1="100" x2="100" y2="113" style="stroke:black"/>
  <line x1="100" y1="113" x2="113" y2="113" style="stroke:black"/>
  <line x1="113" y1="113" x2="113" y2="100" style="stroke:black"/>
  <line x1="113" y1="100" x2="100" y2="100" style="stroke:black"/>
  <line x1="100" y1="100" x2="100" y2="114" style="stroke:black"/>
  <line x1="100" y1="114" x2="114" y2="114" style="stroke:black"/>
  <line x1="114" y1="114" x2="114" y2="100" style="stroke:black"/>
  <line x1="114" y1="100" x2="100" y2="100" style="stroke:black"/>
  <line x1="100" y1="100" x2="100" y2="115" style="stroke:black"/>
  <line x1="100" y1="115" x2="115" y2="115" style="stroke:black"/>
  <line x1="115" y1="115" x2="115" y2="100" style="stroke:black"/>
  <line x1="115" y1="100" x2="100" y2="100" style="stroke:black"/>
  <line x1="100" y1="100" x2="100" y2="116" style="stroke:black"/>
  <line x1="100" y1="116" x2="116" y2="116" style="stroke:black"/>
  <line x1="116" y1="116" x2="116" y2="100" style="stroke:black"/>
  <line x1="116" y1="100" x2="100" y2="100" style="stroke:black"/>
  <line x1="100" y1="100" x2="100" y2="117" style="stroke:black"/>
  <line x1="100" y1="117" x2="117" y2="117" style="stroke:black"/>
  <line x1="117" y1="117" x2="117" y2="100" style="stroke:black"/>
  <line x1="117" y1="100" x2="100" y2="100" style="stroke:black"/>
  <line x1="100" y1="100" x2="100" y2="118" style="stroke:black"/>
  <line x1="100" y1="118" x2="118" y2="118" style="stroke:black"/>
  <line x1="118" y1="118" x2="118" y2="100" style="stroke:black"/>
  <line x1="118" y1="100" x2="100" y2="100" style="stroke:black"/>
  <line x1="100" y1="100" x2="100" y2="119" style="stroke:black"/>
  <line x1="100" y1="119" x2="119" y2="119" style="stroke:black"/>
  <line x1="119" y1="119" x2="119" y2="100" style="stroke:black"/>
  <line x1="119" y1="100" x2="100" y2="100" style="stroke:black"/>
  <line x1="100" y1="100" x2="100" y2="120" style="stroke:black"/>
  <line x1="100" y1="120" x2="120" y2="120" style="stroke:black"/>
  <line x1="120" y1="120" x2="120" y2="100" style="stroke:black"/>
  <line x1="120" y1="100" x2="100" y2="100" style="stroke:black"/>
  <line x1="100" y1="100" x2="100" y2="121" style="stroke:black"/>
  <line x1="100" y1="121" x2="121" y2="121" style="stroke:black"/>
  <line x1="121" y1="121" x2="121" y2="100" style="stroke:black"/>
  <line x1="121" y1="100" x2="100" y2="100" style="stroke:black"/>
  <line x1="100" y1="100" x2="100" y2="122" style="stroke:black"/>
  <line x1="100" y1="122" x2="122" y2="122" style="stroke:black"/>
  <line x1="122" y1="122" x2="122" y2="100" style="stroke:black"/>
  <line x1="122" y1="100" x2="100" y2="100" style="stroke:black"/>
  <line x1="100" y1="100" x2="100" y2="123" style="stroke:black"/>
  <line x1="100" y1="123" x2="123" y2="123" style="stroke:black"/>
  <line x1="123" y1="123" x2="123" y2="100" style="stroke:black"/>
  <line x1="123" y1="100" x2="100" y2="100" style="stroke:black"/>
  <line x1="100" y1="100" x2="100" y2="124" style="stroke:black"/>
  <line x1="100" y1="124" x2="124" y2="124" style="stroke:black"/>
  <line x1="124" y1="124" x2="124" y2="100" style="stroke:black"/>
  <line x1="124" y1="100" x2="100" y2="100" style="stroke:black"/>
  <line x1="100" y1="100" x2="100" y2="125" style="stroke:black"/>
  <line x1="100" y1="125" x2="125" y2="125" style="stroke:black"/>
  <line x1="125" y1="125" x2="125" y2="100" style="stroke:black"/>
  <line x1="125" y1="100" x2="100" y2="100" style="stroke:black"/>
  <line x1="100" y1="100" x2="100" y2="126" style="stroke:black"/>
  <line x1="100" y1="126" x2="126" y2="126" style="stroke:black"/>
  <line x1="126" y1="126" x2="126" y2="100" style="stroke:black"/>
  <line x1="126" y1="100" x2="100" y2="100" style="stroke:black"/>
  <line x1="100" y1="100" x2="100" y2="127" style="stroke:black"/>
  <line x1="100" y1="127" x2="127" y2="127" style="stroke:black"/>
  <line x1="127" y1="127" x2="127" y2="100" style="stroke:black"/>
  <line x1="127" y1="100" x2="100" y2="100" style="stroke:black"/>
  <line x1="100" y1="100" x2="100" y2="128" style="stroke:black"/>
  <line x1="100" y1="128" x2="128" y2="128" style="stroke:black"/>
  <line x1="128" y1="128" x2="128" y2="100" style="stroke:black"/>
  <line x1="128" y1="100" x2="100" y2="100" style="stroke:black"/>
  <line x1="100" y1="100" x2="100" y2="129" style="stroke:black"/>
  <line x1="100" y1="129" x2="129" y2="129" style="stroke:black"/>
  <line x1="129" y1="129" x2="129" y2="100" style="stroke:black"/>
  <line x1="129" y1="100" x2="100" y2="100" style="stroke:black"/>
  <line x1="100" y1="100" x2="100" y2="130" style="stroke:black"/>
  <line x1="100" y1="130" x2="130" y2="130" style="stroke:black"/>
  <line x1="130" y1="130" x2="130" y2="100" style="stroke:black"/>
  <line x1="130" y1="100" x2="100" y2="100" style="stroke:black"/>
  <line x1="100" y1="100" x2="100" y2="131" style="stroke:black"/>
  <line x1="100" y1="131" x2="131" y2="131" style="stroke:black"/>
  <line x1="131" y1="131" x2="131" y2="100" style="stroke:black"/>
  <line x1="131" y1="100" x2="100" y2="100" style="stroke:black"/>
  <line x1="100" y1="100" x2="100" y2="132" style="stroke:black"/>
  <line x1="100" y1="132" x2="132" y2="132" style="stroke:black"/>
  <line x1="132" y1="132" x2="132" y2="100" style="stroke:black"/>
  <line x1="132" y1="100" x2="100" y2="100" style="stroke:black"/>
  <line x1="100" y1="100" x2="100" y2="133" style="stroke:black"/>
  <line x1="100" y1="133" x2="133" y2="133" style="stroke:black"/>
  <line x1="133" y1="133" x2="133" y2="100" style="stroke:black"/>
  <line x1="133" y1="100" x2="100" y2="100" style="stroke:black"/>
  <line x1="100" y1="100" x2="100" y2="134" style="stroke:black"/>
  <line x1="100" y1="134" x2="134" y2="134" style="stroke:black"/>
  <line x1="134" y1="134" x2="134" y2="100" style="stroke:black"/>
  <line x1="134" y1="100" x2="100" y2="100" style="stroke:black"/>
  <line x1="100" y1="100" x2="100" y2="135" style="stroke:black"/>
  <line x1="100" y1="135" x2="135" y2="135" style="stroke:black"/>
  <line x1="135" y1="135" x2="135" y2="100" style="stroke:black"/>
  <line x1="135" y1="100" x2="100" y2="100" style="stroke:black"/>
  <line x1="100" y1="100" x2="100" y2="136" style="stroke:black"/>
  <line x1="100" y1="136" x2="136" y2="136" style="stroke:black"/>
  <line x1="136" y1="136" x2="136" y2="100" style="stroke:black"/>
  <line x1="136" y1="100" x2="100" y2="100" style="stroke:black"/>
  <line x1="100" y1="100" x2="100" y2="137" style="stroke:black"/>
  <line x1="100" y1="137" x2="137" y2="137" style="stroke:black"/>
  <line x1="137" y1="137" x2="137" y2="100" style="stroke:black"/>
  <line x1="137" y1="100" x2="100" y2="100" style="stroke:black"/>
  <line x1="100" y1="100" x2="100" y2="138" style="stroke:black"/>
  <line x1="100" y1="138" x2="138" y2="138" style="stroke:black"/>
  <line x1="138" y1="138" x2="138" y2="100" style="stroke:black"/>
  <line x1="138" y1="100" x2="100" y2="100" style="stroke:black"/>
  <line x1="100" y1="100" x2="100" y2="139" style="stroke:black"/>
  <line x1="100" y1="139" x2="139" y2="139" style="stroke:black"/>
  <line x1="139" y1="139" x2="139" y2="100" style="stroke:black"/>
  <line x1="139" y1="100" x2="100" y2="100" style="stroke:black"/>
  <line x1="100" y1="100" x2="100" y2="140" style="stroke:black"/>
  <line x1="100" y1="140" x2="140" y2="140" style="stroke:black"/>
  <line x1="140" y1="140" x2="140" y2="100" style="stroke:black"/>
  <line x1="140" y1="100" x2="100" y2="100" style="stroke:black"/>
  <line x1="100" y1="100" x2="100" y2="141" style="stroke:black"/>
  <line x1="100" y1="141" x2="141" y2="141" style="stroke:black"/>
  <line x1="141" y1="141" x2="141" y2="100" style="stroke:black"/>
  <line x1="141" y1="100" x2="100" y2="100" style="stroke:black"/>
  <line x1="100" y1="100" x2="100" y2="142" style="stroke:black"/>
  <line x1="100" y1="142" x2="142" y2="142" style="stroke:black"/>
  <line x1="142" y1="142" x2="142" y2="100" style="stroke:black"/>
  <line x1="142" y1="100" x2="100" y2="100" style="stroke:black"/>
  <line x1="100" y1="100" x2="100" y2="143" style="stroke:black"/>
  <line x1="100" y1="143" x2="143" y2="143" style="stroke:black"/>
  <line x1="143" y1="143" x2="143" y2="100" style="stroke:black"/>
  <line x1="143" y1="100" x2="100" y2="100" style="stroke:black"/>
  <line x1="100" y1="100" x2="100" y2="144" style="stroke:black"/>
  <line x1="100" y1="144" x2="144" y2="144" style="stroke:black"/>
  <line x1="144" y1="144" x2="144" y2="100" style="stroke:black"/>
  <line x1="144" y1="100" x2="100" y2="100" style="stroke:black"/>
  <line x1="100" y1="100" x2="100" y2="145" style="stroke:black"/>
  <line x1="100" y1="145" x2="145" y2="145" style="stroke:black"/>
  <line x1="145" y1="145" x2="145" y2="100" style="stroke:black"/>
  <line x1="145" y1="100" x2="100" y2="100" style="stroke:black"/>
  <line x1="100" y1="100" x2="100" y2="146" style="stroke:black"/>
  <line x1="100" y1="146" x2="146" y2="146" style="stroke:black"/>
  <line x1="146" y1="146" x2="146" y2="100" style="stroke:black"/>
  <line x1="146" y1="100" x2="100" y2="100" style="stroke:black"/>
  <line x1="100" y1="100" x2="100" y2="147" style="stroke:black"/>
  <line x1="100" y1="147" x2="147" y2="147" style="stroke:black"/>
  <line x1="147" y1="147" x2="147" y2="100" style="stroke:black"/>
  <line x1="147" y1="100" x2="100" y2="100" style="stroke:black"/>
  <line x1="100" y1="100" x2="100" y2="148" style="stroke:black"/>
  <line x1="100" y1="148" x2="148" y2="148" style="stroke:black"/>
  <line x1="148" y1="148" x2="148" y2="100" style="stroke:black"/>
  <line x1="148" y1="100" x2="100" y2="100" style="stroke:black"/>
  <line x1="100" y1="100" x2="100" y2="149" style="stroke:black"/>
  <line x1="100" y1="149" x2="149" y2="149" style="stroke:black"/>
  <line x1="149" y1="149" x2="149" y2="100" style="stroke:black"/>
  <line x1="149" y1="100" x2="100" y2="100" style="stroke:black"/>
  <line x1="100" y1="100" x2="100" y2="150" style="stroke:black"/>
  <line x1="100" y1="150" x2="150" y2="150" style="stroke:black"/>
  <line x1="150" y1="150" x2="150" y2="100" style="stroke:black"/>
  <line x1="150" y1="100" x2="100" y2="100" style="stroke:black"/>
  <line x1="100" y1="100" x2="100" y2="151" style="stroke:black"/>
  <line x1="100" y1="151" x2="151" y2="151" style="stroke:black"/>
  <line x1="151" y1="151" x2="151" y2="100" style="stroke:black"/>
  <line x1="151" y1="100" x2="100" y2="100" style="stroke:black"/>
  <line x1="100" y1="100" x2="100" y2="152" style="stroke:black"/>
  <line x1="100" y1="152" x2="152" y2="152" style="stroke:black"/>
  <line x1="152" y1="152" x2="152" y2="100" style="stroke:black"/>
  <line x1="152" y1="100" x2="100" y2="100" style="stroke:black"/>
  <line x1="100" y1="100" x2="100" y2="153" style="stroke:black"/>
  <line x1="100" y1="153" x2="153" y2="153" style="stroke:black"/>
  <line x1="153" y1="153" x2="153" y2="100" style="stroke:black"/>
  <line x1="153" y1="100" x2="100" y2="100" style="stroke:black"/>
  <line x1="100" y1="100" x2="100" y2="154" style="stroke:black"/>
  <line x1="100" y1="154" x2="154" y2="154" style="stroke:black"/>
  <line x1="154" y1="154" x2="154" y2="100" style="stroke:black"/>
  <line x1="154" y1="100" x2="100" y2="100" style="stroke:black"/>
  <line x1="100" y1="100" x2="100" y2="155" style="stroke:black"/>
  <line x1="100" y1="155" x2="155" y2="155" style="stroke:black"/>
  <line x1="155" y1="155" x2="155" y2="100" style="stroke:black"/>
  <line x1="155" y1="100" x2="100" y2="100" style="stroke:black"/>
  <line x1="100" y1="100" x2="100" y2="156" style="stroke:black"/>
  <line x1="100" y1="156" x2="156" y2="156" style="stroke:black"/>
  <line x1="156" y1="156" x2="156" y2="100" style="stroke:black"/>
  <line x1="156" y1="100" x2="100" y2="100" style="stroke:black"/>
  <line x1="100" y1="100" x2="100" y2="157" style="stroke:black"/>
  <line x1="100" y1="157" x2="157" y2="157" style="stroke:black"/>
  <line x1="157" y1="157" x2="157" y2="100" style="stroke:black"/>
  <line x1="157" y1="100" x2="100" y2="100" style="stroke:black"/>
  <line x1="100" y1="100" x2="100" y2="158" style="stroke:black"/>
  <line x1="100" y1="158" x2="158" y2="158" style="stroke:black"/>
  <line x1="158" y1="158" x2="158" y2="100" style="stroke:black"/>
  <line x1="158" y1="100" x2="100" y2="100" style="stroke:black"/>
  <line x1="100" y1="100" x2="100" y2="159" style="stroke:black"/>
  <line x1="100" y1="159" x2="159" y2="159" style="stroke:black"/>
  <line x1="159" y1="159" x2="159" y2="100" style="stroke:black"/>
  <line x1="159" y1="100" x2="100" y2="100" style="stroke:black"/>
  <line x1="100" y1="100" x2="100" y2="160" style="stroke:black"/>
  <line x1="100" y1="160" x2="160" y2="160" style="stroke:black"/>
  <line x1="160" y1="160" x2="160" y2="100" style="stroke:black"/>
  <line x1="160" y1="100" x2="100" y2="100" style="stroke:black"/>
  <line x1="100" y1="100" x2="100" y2="161" style="stroke:black"/>
  <line x1="100" y1="161" x2="161" y2="161" style="stroke:black"/>
  <line x1="161" y1="161" x2="161" y2="100" style="stroke:black"/>
  <line x1="161" y1="100" x2="100" y2="100" style="stroke:black"/>
  <line x1="100" y1="100" x2="100" y2="162" style="stroke:black"/>
  <line x1="100" y1="162" x2="162" y2="162" style="stroke:black"/>
  <line x1="162" y1="162" x2="162" y2="100" style="stroke:black"/>
  <line x1="162" y1="100" x2="100" y2="100" style="stroke:black"/>
  <line x1="100" y1="100" x2="100" y2="163" style="stroke:black"/>
  <line x1="100" y1="163" x2="163" y2="163" style="stroke:black"/>
  <line x1="163" y1="163" x2="163" y2="100" style="stroke:black"/>
  <line x1="163" y1="100" x2="100" y2="100" style="stroke:black"/>
  <line x1="100" y1="100" x2="100" y2="164" style="stroke:black"/>
  <line x1="100" y1="164" x2="164" y2="164" style="stroke:black"/>
  <line x1="164" y1="164" x2="164" y2="100" style="stroke:black"/>
  <line x1="164" y1="100" x2="100" y2="100" style="stroke:black"/>
  <line x1="100" y1="100" x2="100" y2="165" style="stroke:black"/>
  <line x1="100" y1="165" x2="165" y2="165" style="stroke:black"/>
  <line x1="165" y1="165" x2="165" y2="100" style="stroke:black"/>
  <line x1="165" y1="100" x2="100" y2="100" style="stroke:black"/>
  <line x1="100" y1="100" x2="100" y2="166" style="stroke:black"/>
  <line x1="100" y1="166" x2="166" y2="166" style="stroke:black"/>
  <line x1="166" y1="166" x2="166" y2="100" style="stroke:black"/>
  <line x1="166" y1="100" x2="100" y2="100" style="stroke:black"/>
  <line x1="100" y1="100" x2="100" y2="167" style="stroke:black"/>
  <line x1="100" y1="167" x2="167" y2="167" style="stroke:black"/>
  <line x1="167" y1="167" x2="167" y2="100" style="stroke:black"/>
  <line x1="167" y1="100" x2="100" y2="100" style="stroke:black"/>
  <line x1="100" y1="100" x2="100" y2="168" style="stroke:black"/>
  <line x1="100" y1="168" x2="168" y2="168" style="stroke:black"/>
  <line x1="168" y1="168" x2="168" y2="100" style="stroke:black"/>
  <line x1="168" y1="100" x2="100" y2="100" style="stroke:black"/>
  <line x1="100" y1="100" x2="100" y2="169" style="stroke:black"/>
  <line x1="100" y1="169" x2="169" y2="169" style="stroke:black"/>
  <line x1="169" y1="169" x2="169" y2="100" style="stroke:black"/>
  <line x1="169" y1="100" x2="100" y2="100" style="stroke:black"/>
  <line x1="100" y1="100" x2="100" y2="170" style="stroke:black"/>
  <line x1="100" y1="170" x2="170" y2="170" style="stroke:black"/>
  <line x1="170" y1="170" x2="170" y2="100" style="stroke:black"/>
  <line x1="170" y1="100" x2="100" y2="100" style="stroke:black"/>
  <line x1="100" y1="100" x2="100" y2="171" style="stroke:black"/>
  <line x1="100" y1="171" x2="171" y2="171" style="stroke:black"/>
  <line x1="171" y1="171" x2="171" y2="100" style="stroke:black"/>
  <line x1="171" y1="100" x2="100" y2="100" style="stroke:black"/>
  <line x1="100" y1="100" x2="100" y2="172" style="stroke:black"/>
  <line x1="100" y1="172" x2="172" y2="172" style="stroke:black"/>
  <line x1="172" y1="172" x2="172" y2="100" style="stroke:black"/>
  <line x1="172" y1="100" x2="100" y2="100" style="stroke:black"/>
  <line x1="100" y1="100" x2="100" y2="173" style="stroke:black"/>
  <line x1="100" y1="173" x2="173" y2="173" style="stroke:black"/>
  <line x1="173" y1="173" x2="173" y2="100" style="stroke:black"/>
  <line x1="173" y1="100" x2="100" y2="100" style="stroke:black"/>
  <line x1="100" y1="100" x2="100" y2="174" style="stroke:black"/>
  <line x1="100" y1="174" x2="174" y2="174" style="stroke:black"/>
  <line x1="174" y1="174" x2="174" y2="100" style="stroke:black"/>
  <line x1="174" y1="100" x2="100" y2="100" style="stroke:black"/>
  <line x1="100" y1="100" x2="100" y2="175" style="stroke:black"/>
  <line x1="100" y1="175" x2="175" y2="175" style="stroke:black"/>
  <line x1="175" y1="175" x2="175" y2="100" style="stroke:black"/>
  <line x1="175" y1="100" x2="100" y2="100" style="stroke:black"/>
  <line x1="100" y1="100" x2="100" y2="176" style="stroke:black"/>
  <line x1="100" y1="176" x2="176" y2="176" style="stroke:black"/>
  <line x1="176" y1="176" x2="176" y2="100" style="stroke:black"/>
  <line x1="176" y1="100" x2="100" y2="100" style="stroke:black"/>
  <line x1="100" y1="100" x2="100" y2="177" style="stroke:black"/>
  <line x1="100" y1="177" x2="177" y2="177" style="stroke:black"/>
  <line x1="177" y1="177" x2="177" y2="100" style="stroke:black"/>
  <line x1="177" y1="100" x2="100" y2="100" style="stroke:black"/>
  <line x1="100" y1="100" x2="100" y2="178" style="stroke:black"/>
  <line x1="100" y1="178" x2="178" y2="178" style="stroke:black"/>
  <line x1="178" y1="178" x2="178" y2="100" style="stroke:black"/>
  <line x1="178" y1="100" x2="100" y2="100" style="stroke:black"/>
  <line x1="100" y1="100" x2="100" y2="179" style="stroke:black"/>
  <line x1="100" y1="179" x2="179" y2="179" style="stroke:black"/>
  <line x1="179" y1="179" x2="179" y2="100" style="stroke:black"/>
  <line x1="179" y1="100" x2="100" y2="100" style="stroke:black"/>
  <line x1="100" y1="100" x2="100" y2="180" style="stroke:black"/>
  <line x1="100" y1="180" x2="180" y2="180" style="stroke:black"/>
  <line x1="180" y1="180" x2="180" y2="100" style="stroke:black"/>
  <line x1="180" y1="100" x2="100" y2="100" style="stroke:black"/>
  <line x1="100" y1="100" x2="100" y2="181" style="stroke:black"/>
  <line x1="100" y1="181" x2="181" y2="181" style="stroke:black"/>
  <line x1="181" y1="181" x2="181" y2="100" style="stroke:black"/>
  <line x1="181" y1="100" x2="100" y2="100" style="stroke:black"/>
  <line x1="100" y1="100" x2="100" y2="182" style="stroke:black"/>
  <line x1="100" y1="182" x2="182" y2="182" style="stroke:black"/>
  <line x1="182" y1="182" x2="182" y2="100" style="stroke:black"/>
  <line x1="182" y1="100" x2="100" y2="100" style="stroke:black"/>
  <line x1="100" y1="100" x2="100" y2="183" style="stroke:black"/>
  <line x1="100" y1="183" x2="183" y2="183" style="stroke:black"/>
  <line x1="183" y1="183" x2="183" y2="100" style="stroke:black"/>
  <line x1="183" y1="100" x2="100" y2="100" style="stroke:black"/>
  <line x1="100" y1="100" x2="100" y2="184" style="stroke:black"/>
  <line x1="100" y1="184" x2="184" y2="184" style="stroke:black"/>
  <line x1="184" y1="184" x2="184" y2="100" style="stroke:black"/>
  <line x1="184" y1="100" x2="100" y2="100" style="stroke:black"/>
  <line x1="100" y1="100" x2="100" y2="185" style="stroke:black"/>
  <line x1="100" y1="185" x2="185" y2="185" style="stroke:black"/>
  <line x1="185" y1="185" x2="185" y2="100" style="stroke:black"/>
  <line x1="185" y1="100" x2="100" y2="100" style="stroke:black"/>
  <line x1="100" y1="100" x2="100" y2="186" style="stroke:black"/>
  <line x1="100" y1="186" x2="186" y2="186" style="stroke:black"/>
  <line x1="186" y1="186" x2="186" y2="100" style="stroke:black"/>
  <line x1="186" y1="100" x2="100" y2="100" style="stroke:black"/>
  <line x1="100" y1="100" x2="100" y2="187" style="stroke:black"/>
  <line x1="100" y1="187" x2="187" y2="187" style="stroke:black"/>
  <line x1="187" y1="187" x2="187" y2="100" style="stroke:black"/>
  <line x1="187" y1="100" x2="100" y2="100" style="stroke:black"/>
  <line x1="100" y1="100" x2="100" y2="188" style="stroke:black"/>
  <line x1="100" y1="188" x2="188" y2="188" style="stroke:black"/>
  <line x1="188" y1="188" x2="188" y2="100" style="stroke:black"/>
  <line x1="188" y1="100" x2="100" y2="100" style="stroke:black"/>
  <line x1="100" y1="100" x2="100" y2="189" style="stroke:black"/>
  <line x1="100" y1="189" x2="189" y2="189" style="stroke:black"/>
  <line x1="189" y1="189" x2="189" y2="100" style="stroke:black"/>
  <line x1="189" y1="100" x2="100" y2="100" style="stroke:black"/>
  <line x1="100" y1="100" x2="100" y2="190" style="stroke:black"/>
  <line x1="100" y1="190" x2="190" y2="190" style="stroke:black"/>
  <line x1="190" y1="190" x2="190" y2="100" style="stroke:black"/>
  <line x1="190" y1="100" x2="100" y2="100" style="stroke:black"/>
  <line x1="100" y1="100" x2="100" y2="191" style="stroke:black"/>
  <line x1="100" y1="191" x2="191" y2="191" style="stroke:black"/>
  <line x1="191" y1="191" x2="191" y2="100" style="stroke:black"/>
  <line x1="191" y1="100" x2="100" y2="100" style="stroke:black"/>
  <line x1="100" y1="100" x2="100" y2="192" style="stroke:black"/>
  <line x1="100" y1="192" x2="192" y2="192" style="stroke:black"/>
  <line x1="192" y1="192" x2="192" y2="100" style="stroke:black"/>
  <line x1="192" y1="100" x2="100" y2="100" style="stroke:black"/>
  <line x1="100" y1="100" x2="100" y2="193" style="stroke:black"/>
  <line x1="100" y1="193" x2="193" y2="193" style="stroke:black"/>
  <line x1="193" y1="193" x2="193" y2="100" style="stroke:black"/>
  <line x1="193" y1="100" x2="100" y2="100" style="stroke:black"/>
  <line x1="100" y1="100" x2="100" y2="194" style="stroke:black"/>
  <line x1="100" y1="194" x2="194" y2="194" style="stroke:black"/>
  <line x1="194" y1="194" x2="194" y2="100" style="stroke:black"/>
  <line x1="194" y1="100" x2="100" y2="100" style="stroke:black"/>
  <line x1="100" y1="100" x2="100" y2="195" style="stroke:black"/>
  <line x1="100" y1="195" x2="195" y2="195" style="stroke:black"/>
  <line x1="195" y1="195" x2="195" y2="100" style="stroke:black"/>
  <line x1="195" y1="100" x2="100" y2="100" style="stroke:black"/>
  <line x1="100" y1="100" x2="100" y2="196" style="stroke:black"/>
  <line x1="100" y1="196" x2="196" y2="196" style="stroke:black"/>
  <line x1="196" y1="196" x2="196" y2="100" style="stroke:black"/>
  <line x1="196" y1="100" x2="100" y2="100" style="stroke:black"/>
  <line x1="100" y1="100" x2="100" y2="197" style="stroke:black"/>
  <line x1="100" y1="197" x2="197" y2="197" style="stroke:black"/>
  <line x1="197" y1="197" x2="197" y2="100" style="stroke:black"/>
  <line x1="197" y1="100" x2="100" y2="100" style="stroke:black"/>
  <line x1="100" y1="100" x2="100" y2="198" style="stroke:black"/>
  <line x1="100" y1="198" x2="198" y2="198" style="stroke:black"/>
  <line x1="198" y1="198" x2="198" y2="100" style="stroke:black"/>
  <line x1="198" y1="100" x2="100" y2="100" style="stroke:black"/>
  <line x1="100" y1="100" x2="100" y2="199" style="stroke:black"/>
  <line x1="100" y1="199" x2="199" y2="199" style="stroke:black"/>
  <line x1="199" y1="199" x2="199" y2="100" style="stroke:black"/>
  <line x1="199" y1="100" x2="100" y2="100" style="stroke:black"/>
  <line x1="100" y1="100" x2="100" y2="200" style="stroke:black"/>
  <line x1="100" y1="200" x2="200" y2="200" style="stroke:black"/>
  <line x1="200" y1="200" x2="200" y2="100" style="stroke:black"/>
  <line x1="200" y1="100" x2="100" y2="100" style="stroke:black"/>
</svg>
